<svg width="140" height="140" viewBox="0 0 140 140" fill="none" xmlns="http://www.w3.org/2000/svg">
<path d="M4.65625 0.3125C3.42134 0.3125 2.237 0.803068 1.36378 1.67628C0.490568 2.5495 0 3.73384 0 4.96875C0 6.20366 0.490568 7.388 1.36378 8.26122C2.237 9.13443 3.42134 9.625 4.65625 9.625H14.9931L18.7274 24.5902L32.6776 98.9505C32.8773 100.018 33.4436 100.981 34.2785 101.675C35.1134 102.369 36.1645 102.749 37.25 102.75H46.5625C41.6228 102.75 36.8855 104.712 33.3926 108.205C29.8998 111.698 27.9375 116.435 27.9375 121.375C27.9375 126.315 29.8998 131.052 33.3926 134.545C36.8855 138.038 41.6228 140 46.5625 140C51.5022 140 56.2395 138.038 59.7324 134.545C63.2252 131.052 65.1875 126.315 65.1875 121.375C65.1875 116.435 63.2252 111.698 59.7324 108.205C56.2395 104.712 51.5022 102.75 46.5625 102.75H111.75C106.81 102.75 102.073 104.712 98.5801 108.205C95.0873 111.698 93.125 116.435 93.125 121.375C93.125 126.315 95.0873 131.052 98.5801 134.545C102.073 138.038 106.81 140 111.75 140C116.69 140 121.427 138.038 124.92 134.545C128.413 131.052 130.375 126.315 130.375 121.375C130.375 116.435 128.413 111.698 124.92 108.205C121.427 104.712 116.69 102.75 111.75 102.75H121.062C122.148 102.749 123.199 102.369 124.034 101.675C124.869 100.981 125.435 100.018 125.635 98.9505L139.604 24.4505C139.729 23.7785 139.706 23.087 139.534 22.4252C139.363 21.7634 139.047 21.1475 138.611 20.6212C138.174 20.095 137.627 19.6713 137.009 19.3803C136.39 19.0893 135.715 18.9381 135.031 18.9375H26.9131L23.1416 3.84194C22.8902 2.83418 22.3091 1.93938 21.4907 1.29986C20.6724 0.660328 19.6636 0.312787 18.625 0.3125H4.65625ZM55.875 121.375C55.875 123.845 54.8939 126.214 53.1474 127.96C51.401 129.706 49.0323 130.688 46.5625 130.688C44.0927 130.688 41.724 129.706 39.9776 127.96C38.2311 126.214 37.25 123.845 37.25 121.375C37.25 118.905 38.2311 116.536 39.9776 114.79C41.724 113.044 44.0927 112.062 46.5625 112.062C49.0323 112.062 51.401 113.044 53.1474 114.79C54.8939 116.536 55.875 118.905 55.875 121.375ZM121.062 121.375C121.062 123.845 120.081 126.214 118.335 127.96C116.589 129.706 114.22 130.688 111.75 130.688C109.28 130.688 106.911 129.706 105.165 127.96C103.419 126.214 102.438 123.845 102.438 121.375C102.438 118.905 103.419 116.536 105.165 114.79C106.911 113.044 109.28 112.062 111.75 112.062C114.22 112.062 116.589 113.044 118.335 114.79C120.081 116.536 121.062 118.905 121.062 121.375ZM105.734 50.1716L77.7966 78.1091C77.3641 78.5427 76.8503 78.8868 76.2846 79.1215C75.7189 79.3562 75.1125 79.4771 74.5 79.4771C73.8875 79.4771 73.2811 79.3562 72.7154 79.1215C72.1497 78.8868 71.6359 78.5427 71.2034 78.1091L57.2346 64.1404C56.8017 63.7075 56.4583 63.1935 56.224 62.6279C55.9897 62.0622 55.8691 61.456 55.8691 60.8438C55.8691 60.2315 55.9897 59.6253 56.224 59.0596C56.4583 58.494 56.8017 57.98 57.2346 57.5471C57.6675 57.1142 58.1815 56.7708 58.7471 56.5365C59.3128 56.3022 59.919 56.1816 60.5312 56.1816C61.1435 56.1816 61.7497 56.3022 62.3154 56.5365C62.881 56.7708 63.395 57.1142 63.8279 57.5471L74.5 68.2286L99.1409 43.5784C99.5738 43.1455 100.088 42.802 100.653 42.5677C101.219 42.3335 101.825 42.2129 102.438 42.2129C103.05 42.2129 103.656 42.3335 104.222 42.5677C104.787 42.802 105.301 43.1455 105.734 43.5784C106.167 44.0113 106.51 44.5252 106.745 45.0909C106.979 45.6565 107.1 46.2628 107.1 46.875C107.1 47.4872 106.979 48.0935 106.745 48.6591C106.51 49.2248 106.167 49.7387 105.734 50.1716Z" fill="#25EC51"/>
</svg>
