<svg width="58" height="58" viewBox="0 0 58 58" fill="none" xmlns="http://www.w3.org/2000/svg">
<path d="M51.5556 58H6.44444C4.73527 58 3.0961 57.321 1.88753 56.1125C0.678966 54.9039 0 53.2647 0 51.5556V38.6667H6.44444V51.5556H51.5556V6.44444H6.44444V19.3333H0V6.44444C0 4.73527 0.678966 3.0961 1.88753 1.88753C3.0961 0.678966 4.73527 0 6.44444 0H51.5556C53.2647 0 54.9039 0.678966 56.1125 1.88753C57.321 3.0961 58 4.73527 58 6.44444V51.5556C58 53.2647 57.321 54.9039 56.1125 56.1125C54.9039 57.321 53.2647 58 51.5556 58ZM25.7778 41.8889V32.2222H0V25.7778H25.7778V16.1111L41.8889 29L25.7778 41.8889Z" fill="black"/>
</svg>
