<svg width="404" height="515" viewBox="0 0 404 515" fill="none" xmlns="http://www.w3.org/2000/svg">
<path d="M199.665 449.371C201.766 470.369 197.563 490.901 193.126 511.433C188.455 512.366 183.785 512.833 179.114 513.3C182.384 500.701 184.719 487.635 186.12 474.569C186.821 468.503 187.288 461.97 185.42 456.137C183.084 448.671 177.713 443.071 171.875 437.705C173.743 435.838 175.845 434.438 178.18 433.272C182.617 430.938 188.222 430.472 192.659 433.272C197.329 436.538 198.964 443.304 199.665 449.371Z" fill="#CF5B44"/>
<path d="M185.186 456.136C187.054 461.969 186.587 468.502 185.886 474.568C184.485 487.634 182.15 500.467 178.881 513.299C175.144 513.766 171.174 513.766 167.438 513.999C171.408 492.767 169.306 470.369 161.366 450.07C163.001 447.737 164.869 445.404 166.737 443.07C168.372 441.204 169.773 439.337 171.641 437.704C177.246 443.07 182.851 448.903 185.186 456.136Z" fill="url(#paint0_linear)"/>
<path d="M161.366 450.07C169.306 470.136 171.408 492.534 167.438 513.999C156.696 514.233 145.72 513.3 135.211 511.433C139.181 489.968 148.522 468.036 161.366 450.07Z" fill="url(#paint1_linear)"/>
<path d="M168.839 444.704C157.163 457.07 148.522 472.002 143.852 488.101C150.157 492.768 159.965 492.534 166.504 488.101C173.043 483.668 176.545 475.735 176.779 468.036C177.48 460.103 172.809 451.47 168.839 444.704Z" fill="url(#paint2_linear)"/>
<path d="M251.975 314.047C279.297 326.879 295.177 358.844 285.369 387.775C280.231 402.941 269.256 416.007 256.412 425.573C238.664 438.872 216.245 448.671 193.827 443.772C191.024 443.072 188.456 442.372 185.887 441.205C199.898 444.472 215.778 440.505 227.688 431.872C243.568 420.206 252.909 401.774 257.813 382.875C261.316 369.576 262.483 354.877 256.645 342.511C249.406 327.112 232.125 318.246 215.077 316.38C206.671 315.447 198.497 315.913 190.09 317.08C209.006 306.814 231.658 304.481 251.975 314.047Z" fill="#CF5B44"/>
<path d="M256.645 342.278C262.483 354.644 261.082 369.343 257.813 382.643C252.909 401.541 243.568 420.207 227.688 431.639C215.778 440.272 199.898 444.239 185.887 440.972C170.24 434.672 157.397 421.373 151.558 405.508C145.253 387.542 147.355 367.244 155.995 350.211C163.468 335.979 175.612 324.08 190.09 316.613C198.264 315.447 206.671 314.98 215.077 315.913C231.891 318.013 249.172 326.879 256.645 342.278ZM206.904 366.077C210.641 358.844 210.641 348.578 206.437 341.812C203.401 336.912 198.964 334.346 193.36 334.112C194.527 328.046 196.162 322.446 198.964 317.08C194.06 321.98 190.324 328.046 188.222 334.579C178.881 336.679 170.708 344.845 166.738 352.078C165.804 353.944 164.869 355.811 164.402 357.444C162.768 363.51 163.468 369.81 166.504 374.476C168.839 378.209 172.576 380.543 177.013 381.476C177.713 381.709 178.647 381.709 179.582 381.709C176.546 400.375 180.983 420.207 191.958 435.606C183.551 418.574 181.216 399.908 184.953 381.476C193.827 379.843 202.934 374.01 206.904 366.077Z" fill="url(#paint3_linear)"/>
<path d="M206.437 341.811C210.641 348.577 210.641 358.843 206.904 366.076C202.701 374.009 193.827 379.842 184.719 381.241C180.983 399.674 183.318 418.572 191.725 435.371C180.983 419.972 176.312 400.14 179.348 381.475C178.414 381.475 177.714 381.241 176.779 381.241C172.342 380.542 168.606 378.208 166.271 374.242C163.235 369.576 162.534 363.276 164.169 357.21C164.636 355.577 165.337 353.71 166.504 351.843C170.708 344.377 178.881 336.444 187.989 334.345C190.324 327.812 194.06 321.745 198.731 316.846C195.929 322.212 194.294 327.812 193.126 333.878C198.964 334.111 203.635 336.911 206.437 341.811ZM206.437 360.71C207.138 358.376 207.371 355.81 207.371 353.243C207.371 353.01 207.371 352.777 207.371 352.543C207.371 352.31 207.371 352.077 207.371 351.843C207.371 351.61 207.371 351.377 207.371 351.143C207.371 350.677 207.138 349.977 207.138 349.51C207.138 349.51 207.138 349.277 207.138 349.044C207.138 348.81 206.904 348.344 206.904 348.11C206.671 347.41 206.437 346.944 206.204 346.244C205.97 345.777 205.737 345.077 205.503 344.611C204.803 343.211 203.868 342.044 202.934 340.877C202.701 340.644 202.467 340.411 202.234 340.178C200.132 338.311 197.33 337.378 193.827 337.378C184.486 337.611 175.612 346.01 171.408 353.71C170.474 355.343 169.774 356.743 169.54 358.376C167.205 366.309 170.007 376.109 179.115 377.508C182.851 377.975 186.588 377.508 190.324 376.342C191.725 375.875 192.893 375.409 194.06 374.709C195.228 374.242 196.162 373.542 197.096 372.842C200.599 370.509 203.401 367.476 205.27 363.976C205.503 363.509 205.737 363.043 205.97 362.576C205.97 362.343 206.204 361.643 206.437 360.71Z" fill="#CF5B44"/>
<path d="M207.371 353.477C207.371 356.044 207.138 358.61 206.437 360.943C206.204 361.643 205.97 362.343 205.737 363.043C205.503 363.51 205.27 363.976 205.036 364.443C203.168 367.943 200.365 370.976 196.863 373.309C195.928 374.009 194.761 374.476 193.827 375.176C192.659 375.876 191.258 376.342 190.09 376.809C187.054 377.975 183.785 378.442 180.516 378.209C176.079 374.476 174.911 367.476 176.546 361.643C177.013 360.243 177.713 358.61 178.414 356.977C182.617 349.277 191.491 341.111 200.833 340.645C201.3 340.645 201.533 340.645 201.767 340.645C202 340.878 202.234 341.111 202.467 341.344C203.635 342.511 204.335 343.678 205.036 345.078C205.27 345.544 205.503 346.244 205.737 346.711C205.97 347.411 206.204 347.877 206.437 348.577C206.437 348.811 206.671 349.277 206.671 349.511C206.671 349.744 206.671 349.744 206.671 349.977C206.671 350.444 206.904 351.144 206.904 351.61C206.904 351.844 206.904 352.077 206.904 352.31C206.904 352.544 206.904 352.777 206.904 353.01C207.371 353.01 207.371 353.244 207.371 353.477Z" fill="#C9FFEF"/>
<path d="M202 340.411C201.766 340.411 201.299 340.411 201.066 340.411C191.725 340.644 182.851 349.044 178.647 356.743C177.713 358.377 177.013 359.777 176.779 361.41C175.144 367.476 176.312 374.242 180.749 377.975C184.018 378.209 187.288 377.742 190.324 376.575C186.587 377.742 182.851 378.209 179.114 377.742C170.007 376.342 167.204 366.543 169.54 358.61C170.007 357.21 170.707 355.577 171.408 353.944C175.611 346.244 184.485 338.078 193.826 337.611C197.096 337.611 199.898 338.545 202 340.411Z" fill="#44CFB8"/>
<path d="M203.401 359.543C201.767 362.577 199.198 364.91 195.928 365.843C192.659 366.776 189.156 366.31 186.587 363.976C184.019 361.877 182.851 358.143 183.785 355.11C182.384 358.143 180.516 362.11 180.983 365.376C181.45 368.643 183.552 371.909 186.821 373.076C190.557 374.709 194.994 373.309 198.03 370.509C201.066 367.71 201.767 363.277 203.401 359.543Z" fill="#A4EDE0"/>
<path d="M195.695 358.144C198.731 357.211 202.234 355.344 202 351.845C201.767 348.811 198.264 346.712 195.461 347.178C188.689 347.878 186.821 360.477 195.695 358.144Z" fill="#EBFFFC"/>
<path d="M232.825 337.611C235.394 342.744 234.46 349.044 231.891 354.177C229.322 359.31 224.885 363.276 220.448 367.01C209.94 375.409 197.329 381.709 184.252 385.442C184.485 384.042 184.719 382.642 184.952 381.242C194.06 379.842 202.934 373.776 207.137 366.076C210.874 358.843 210.874 348.577 206.67 341.811C203.634 336.911 199.197 334.345 193.593 334.112C194.527 329.679 195.694 325.246 197.329 321.046C206.67 321.279 216.011 323.846 223.484 328.045C227.22 330.379 230.957 333.412 232.825 337.611ZM166.504 388.941C170.707 388.475 174.677 387.775 178.881 386.842C179.114 384.975 179.114 383.342 179.581 381.475C178.647 381.475 177.946 381.242 177.012 381.242C172.575 380.542 168.839 378.209 166.504 374.242C163.468 369.576 162.767 363.276 164.402 357.21C164.869 355.577 165.57 353.71 166.737 351.844C170.941 344.378 179.114 336.445 188.222 334.345C189.856 329.445 192.425 325.012 195.694 320.812C189.856 320.812 184.018 321.746 178.647 323.846C169.306 330.845 161.6 339.945 156.229 350.211C150.857 360.477 148.055 371.909 148.055 383.342C148.522 384.042 149.223 384.742 149.923 385.442C154.127 389.408 160.666 389.641 166.504 388.941Z" fill="url(#paint4_linear)"/>
<path d="M251.741 487.4C254.543 496.033 258.28 504.433 262.95 512.365C258.28 512.132 253.843 511.666 249.172 510.966C249.172 503.266 250.106 495.333 251.741 487.4Z" fill="#94122E"/>
<path d="M299.147 483.667C302.65 492.533 305.685 501.399 308.488 510.499C293.309 513.065 278.129 513.532 262.95 512.598C258.513 504.666 254.777 496.266 251.741 487.633C251.741 487.167 251.974 486.933 251.974 486.467C253.843 477.601 256.178 466.401 261.783 458.935C264.351 455.436 268.555 452.636 272.992 452.869C287.003 453.802 294.71 472.468 299.147 483.667Z" fill="url(#paint5_linear)"/>
<path d="M251.741 487.401C250.106 495.334 249.172 503.267 249.172 511.2C246.603 510.966 244.035 510.5 241.466 510.266C240.065 487.401 241.232 464.303 244.969 441.671C244.502 457.07 246.837 472.702 251.741 487.401Z" fill="#CF5B44"/>
<path d="M314.793 509.332C312.691 509.799 310.356 510.266 308.254 510.499C305.685 501.4 302.416 492.534 298.913 483.667C294.476 472.468 287.003 453.803 272.758 452.869C268.321 452.636 264.118 455.203 261.549 458.936C255.944 466.402 253.609 477.601 251.741 486.467C251.741 486.934 251.507 487.167 251.507 487.634C246.603 472.935 244.268 457.303 244.735 441.67C246.136 432.804 248.004 424.171 250.34 415.539C251.507 411.106 254.076 407.139 258.513 405.739C262.95 404.339 267.854 405.739 271.824 408.072C275.794 410.406 278.83 413.905 281.632 417.638C302.416 442.837 313.392 476.901 314.793 509.332Z" fill="url(#paint6_linear)"/>
<path d="M255.944 459.87C257.813 468.036 261.315 476.902 268.555 480.401C275.794 483.901 285.135 480.635 290.273 473.869C299.38 461.969 295.644 445.404 289.339 433.038C284.668 423.705 270.656 402.007 258.28 409.473C254.076 412.039 253.142 417.639 252.675 422.539C252.208 435.138 253.142 447.97 255.944 459.87Z" fill="url(#paint7_linear)"/>
<path d="M270.423 184.556C270.19 185.256 269.956 185.956 269.723 186.656C264.819 199.721 258.513 213.021 253.376 226.086C245.202 223.287 236.795 222.12 228.155 222.12C227.688 210.454 227.921 198.555 230.49 187.356C233.059 175.923 238.664 164.957 248.238 158.424C253.843 154.458 260.148 153.291 264.819 158.891C269.022 163.79 270.89 170.557 271.124 177.09C271.124 179.423 270.89 181.989 270.423 184.556Z" fill="#C9FFEF"/>
<path d="M162.534 215.587C157.864 214.654 153.193 214.187 148.523 214.187C147.589 205.555 146.654 196.455 147.589 187.822C148.289 179.19 151.091 170.557 156.696 164.024C159.265 160.991 162.534 158.424 166.504 158.191C168.606 157.958 170.708 158.891 172.342 160.291C167.905 178.723 163.702 197.155 162.534 215.587Z" fill="#C9FFEF"/>
<path d="M208.305 239.151C201.533 249.417 191.491 258.283 180.282 263.65C175.378 257.35 172.342 248.017 170.007 240.318C182.617 242.884 195.928 242.418 208.305 239.151Z" fill="#44CFB8"/>
<path d="M228.155 221.885C236.796 221.885 245.203 223.285 253.376 225.852C252.675 227.485 252.208 228.885 251.508 230.518C240.532 228.185 229.323 226.085 218.347 224.219C214.844 200.187 218.347 174.522 228.622 152.357C231.191 146.757 234.227 141.391 238.664 136.958C243.101 132.758 248.939 129.491 255.244 129.725C262.95 129.958 269.956 135.091 273.459 141.857C276.962 148.623 277.663 156.79 276.495 164.256C275.561 171.022 273.226 177.788 270.657 184.321C271.124 181.755 271.357 179.188 271.357 176.622C271.357 170.089 269.489 163.322 265.052 158.423C260.382 152.823 254.076 154.223 248.472 157.956C238.897 164.489 233.293 175.688 230.724 186.888C227.922 198.554 227.688 210.453 228.155 221.885Z" fill="#44CFB8"/>
<path d="M148.756 214.419C153.427 214.419 158.097 214.886 162.768 215.819C162.768 216.753 162.534 217.686 162.534 218.852C155.295 218.619 148.056 218.386 140.816 218.386C136.379 198.32 137.547 177.555 145.02 158.656C148.056 151.19 151.792 143.957 157.163 137.891C158.798 136.024 160.666 134.158 162.768 132.991C165.103 131.825 167.672 131.358 170.007 132.291C173.277 133.458 175.145 136.958 175.612 140.224C176.079 143.491 175.145 146.99 174.444 150.257C173.744 153.757 172.81 157.023 171.875 160.523C170.241 159.123 168.139 158.19 166.037 158.423C162.067 158.656 158.798 161.456 156.229 164.256C150.625 170.789 148.056 179.422 147.122 188.054C146.888 196.687 147.822 205.787 148.756 214.419Z" fill="#44CFB8"/>
<path d="M270.423 184.555C272.758 178.022 275.094 171.489 276.261 164.489C277.429 157.023 276.728 148.857 273.225 142.091C269.722 135.325 262.717 129.958 255.01 129.958C248.939 129.725 242.867 132.758 238.43 137.191C233.993 141.391 230.957 146.99 228.388 152.59C218.113 174.755 214.61 200.42 218.113 224.452C229.322 226.085 240.298 228.185 251.274 230.752C251.741 229.118 252.442 227.719 253.142 226.085C258.28 213.019 264.585 199.487 269.489 186.655C269.956 185.955 270.189 185.255 270.423 184.555ZM162.534 215.586C163.702 197.154 167.905 178.488 172.109 160.29C173.043 156.79 173.743 153.29 174.677 150.024C175.378 146.757 176.312 143.257 175.845 139.991C175.378 136.724 173.51 133.225 170.24 132.058C167.905 131.125 165.103 131.591 163.001 132.758C160.666 133.925 159.031 135.791 157.396 137.658C152.025 143.724 148.289 150.957 145.253 158.423C137.78 177.555 136.379 198.32 141.05 218.152C148.289 218.152 155.528 218.386 162.768 218.619C162.534 217.686 162.534 216.753 162.534 215.586ZM312.224 186.421C304.518 218.152 286.536 246.384 268.321 273.449C260.615 276.482 252.208 280.215 244.268 283.248C238.43 297.947 235.861 313.813 236.562 329.679C203.168 327.812 169.773 320.346 138.948 308.213C137.08 292.114 136.846 279.982 137.313 262.483C131.242 256.65 118.631 241.484 118.631 241.484C118.631 241.484 118.398 213.719 119.098 204.387C120.266 184.555 124.236 164.723 131.709 146.29C144.319 115.026 168.372 87.7276 199.898 75.8284C231.424 63.9291 270.189 70.2287 293.309 94.7271C315.727 118.526 319.931 154.69 312.224 186.421ZM180.282 263.65C191.491 258.283 201.299 249.417 208.305 239.151C195.928 242.418 182.851 242.884 170.24 240.318C172.342 248.017 175.378 257.35 180.282 263.65Z" fill="url(#paint8_radial)"/>
<path d="M373.875 195.755C365.001 215.587 350.99 233.552 337.679 251.051C333.942 255.951 330.206 261.084 326.469 266.217C325.302 265.75 324.134 264.817 323.2 263.417C318.996 257.817 318.996 250.818 320.398 243.585C320.398 243.352 320.398 243.118 320.631 242.652C326.703 236.352 332.774 230.286 338.613 223.753C348.654 212.554 357.995 199.954 364.534 186.422C368.27 186.655 371.54 188.755 373.174 192.255C373.642 193.421 373.875 194.588 373.875 195.755Z" fill="url(#paint9_linear)"/>
<path d="M375.51 200.654C375.977 197.387 376.444 194.121 375.977 190.855C375.743 189.221 375.276 187.588 374.342 186.188C372.708 183.388 370.139 181.522 367.103 180.589C364.534 179.889 361.732 179.655 359.163 180.355C353.325 181.522 348.421 185.255 343.984 189.455C328.338 204.154 317.829 224.919 315.494 246.384C315.494 246.851 315.494 247.318 315.26 248.018C314.56 255.717 315.494 262.95 320.631 268.783C321.565 269.716 322.266 270.416 323.2 270.883C328.104 273.916 333.242 270.649 338.379 266.216C346.086 259.683 352.624 251.984 358.229 243.584C366.636 230.752 372.708 216.053 375.51 200.654ZM338.146 261.55C334.176 264.816 330.206 267.383 326.703 265.983C325.535 265.516 324.368 264.583 323.434 263.183C319.23 257.584 319.23 250.584 320.631 243.351C320.631 243.118 320.631 242.885 320.865 242.418C324.368 223.752 334.176 206.254 347.954 193.888C351.924 190.388 356.361 187.121 361.031 186.188C362.199 185.955 363.367 185.955 364.768 185.955C368.504 186.188 371.773 188.288 373.408 191.788C373.875 192.954 374.109 193.888 374.342 195.054C374.809 198.087 374.109 201.354 373.408 204.387C367.804 227.019 354.96 247.551 338.146 261.55Z" fill="#94122E"/>
<path d="M372.941 205.087C367.57 227.253 354.96 247.551 337.912 261.784C333.942 265.05 329.972 267.617 326.469 266.217C330.206 261.084 333.942 255.951 337.679 251.051C350.99 233.552 365.001 215.587 373.875 195.755C374.342 198.788 373.875 202.054 372.941 205.087ZM347.72 194.355C333.942 206.721 324.134 224.219 320.631 242.885C326.703 236.585 332.775 230.519 338.613 223.986C348.654 212.787 357.996 200.188 364.534 186.655C363.367 186.422 362.199 186.655 360.798 186.889C355.894 187.589 351.457 190.855 347.72 194.355Z" fill="url(#paint10_linear)"/>
<path d="M133.577 305.647C131.708 304.714 129.607 304.014 127.738 303.081C125.637 291.648 123.301 279.982 121.2 268.55C126.804 280.449 131.008 292.815 133.577 305.647ZM339.079 78.1621C365.234 97.2942 378.779 132.525 372.24 164.257C371.073 169.856 369.438 175.222 367.103 180.589C370.138 181.522 372.941 183.389 374.342 186.188C375.276 187.588 375.743 189.222 375.977 190.855C378.779 183.855 380.881 176.856 382.048 169.39C387.653 134.392 369.438 96.5942 339.079 78.1621ZM315.493 248.018C307.086 256.417 298.913 265.05 291.44 274.383C278.363 290.715 267.621 309.614 264.585 329.912C276.261 329.446 288.171 328.513 299.614 326.879C302.182 306.814 311.757 288.382 323.433 271.116C322.499 270.65 321.799 269.95 320.864 269.016C315.493 263.183 314.793 255.717 315.493 248.018Z" fill="#CF5B44"/>
<path d="M392.09 146.291C390.222 125.992 382.516 105.927 368.971 90.5279C355.427 75.1289 336.511 65.3295 316.895 59.03C279.531 47.364 236.795 42.931 199.665 58.0967C170.007 70.4625 145.487 94.4943 132.409 123.659C121.434 148.158 117.23 176.856 115.362 203.921C115.128 208.12 114.895 212.087 114.661 216.286C113.727 238.452 115.829 261.083 120.733 282.315C121.434 285.349 123.535 301.214 126.104 302.381C126.571 302.614 127.038 302.847 127.739 303.081C125.637 291.648 123.302 279.982 121.2 268.55C126.805 280.216 131.242 292.815 133.577 305.647C135.445 306.347 137.313 307.28 139.181 307.98C137.313 291.882 137.08 279.749 137.547 262.25C131.475 256.417 118.865 241.251 118.865 241.251C118.865 241.251 118.631 213.487 119.332 204.154C120.499 184.322 124.469 164.49 131.942 146.058C144.553 114.793 168.606 87.4948 200.132 75.5955C231.658 63.6963 270.423 69.9959 293.542 94.4943C315.727 118.293 319.931 154.69 312.224 186.188C304.518 217.92 286.536 246.151 268.321 273.216C260.615 276.249 252.208 279.982 244.268 283.015C238.43 297.714 235.861 313.58 236.562 329.446C245.903 329.912 255.244 330.146 264.351 329.912C267.387 309.38 278.129 290.482 291.207 274.383C298.68 265.05 306.853 256.65 315.26 248.018C315.26 247.551 315.26 247.084 315.494 246.384C317.829 224.919 328.338 204.154 343.984 189.455C348.421 185.255 353.325 181.522 359.163 180.355C361.732 179.889 364.534 179.889 367.103 180.589C369.205 175.222 371.073 169.856 372.24 164.256C378.779 132.525 365.235 97.2941 339.08 78.162C369.438 96.5942 387.653 134.392 382.049 169.389C380.881 176.856 378.779 184.089 375.977 190.855C376.444 194.121 375.977 197.388 375.51 200.654C372.707 215.82 366.869 230.519 358.229 243.585C352.624 251.984 345.852 259.684 338.379 266.216C333.475 270.416 328.338 273.916 323.2 270.883C311.524 288.148 301.949 306.581 299.38 326.646C304.518 325.946 309.655 325.013 314.793 323.846C324.368 295.148 343.984 270.883 360.798 245.218C368.971 232.619 376.677 219.786 382.282 206.02C389.988 187.355 393.958 166.823 392.09 146.291Z" fill="url(#paint11_linear)"/>
<path d="M324.368 64.8623C328.338 75.1283 327.871 86.7943 324.835 97.5269C321.799 108.26 315.727 117.826 308.721 126.458C291.908 147.224 269.022 162.156 244.735 171.722C220.449 181.288 193.827 185.488 167.905 187.121C160.432 187.588 152.726 187.821 145.253 185.954C138.014 184.088 130.775 179.888 127.038 173.355C117.23 156.09 130.308 129.491 139.182 114.326C150.624 94.9604 166.971 78.3948 186.354 67.1955C227.688 43.3971 281.632 46.1969 324.368 64.8623Z" fill="url(#paint12_linear)"/>
<path d="M139.882 195.754C140.115 197.388 140.349 199.021 141.05 200.654C141.984 202.054 143.385 203.22 145.02 203.22C147.121 203.22 148.756 201.354 149.924 199.721C158.097 188.055 161.6 173.822 163.468 159.823C163.702 157.723 163.935 155.624 163.702 153.524C163.235 151.424 162.067 149.557 159.965 148.624C158.097 147.924 155.995 148.624 154.361 149.791C141.283 158.657 138.481 181.055 139.882 195.754Z" fill="url(#paint13_linear)"/>
<path d="M218.58 195.988C218.58 199.021 218.58 202.055 219.981 204.854C221.149 207.654 223.718 209.987 226.754 210.221C231.424 210.454 234.927 206.021 237.029 202.055C245.903 186.655 255.711 167.757 253.376 149.325C252.909 145.591 250.807 142.092 247.538 140.692C244.969 139.759 241.933 139.992 239.364 141.392C236.795 142.558 234.927 144.658 233.059 146.758C222.55 159.124 218.814 179.656 218.58 195.988Z" fill="url(#paint14_linear)"/>
<path d="M174.911 307.046L171.408 332.944H139.882L136.846 301.913L174.911 307.046Z" fill="#E5AB86"/>
<path d="M181.45 292.814L176.312 433.505H105.32V285.814L181.45 292.814ZM171.408 332.945L174.911 307.046L137.08 301.913L139.882 332.945H171.408Z" fill="#D3794C"/>
<path d="M96.9129 295.381L58.1475 380.775L7.93945 295.381L57.2134 367.01L96.9129 295.381Z" fill="#D3794C"/>
<path d="M105.32 285.814V433.505H19.3827L0 282.548L105.32 285.814ZM58.148 380.775L96.9133 295.38L57.2139 367.009L8.17341 295.38L58.148 380.775Z" fill="#F7B879"/>
<path d="M197.563 412.974C196.862 415.54 195.928 417.873 194.994 420.206C193.826 422.54 192.425 425.106 190.557 426.973C185.653 426.739 180.749 426.039 176.078 424.873C170.007 423.473 164.169 421.14 159.498 417.173C151.792 410.874 147.822 400.141 149.69 390.342C151.558 379.376 161.366 367.477 173.276 369.343C179.815 370.276 186.12 371.676 192.659 373.076C199.431 385.209 201.299 399.908 197.563 412.974Z" fill="url(#paint15_linear)"/>
<path d="M273.225 348.811C275.794 358.377 273.692 368.643 269.956 377.742C262.716 395.474 248.938 410.173 231.891 418.806C219.281 425.106 204.802 428.139 190.557 427.205C192.425 425.106 193.826 422.772 194.994 420.439C196.162 418.106 196.862 415.54 197.563 413.206C211.107 414.14 225.119 411.106 237.029 404.574C250.106 397.574 261.082 386.141 267.854 372.842C270.189 368.176 272.057 363.043 272.758 357.677C273.225 352.777 272.758 347.644 270.423 343.211C271.824 344.611 272.525 346.711 273.225 348.811Z" fill="#CF5B44"/>
<path d="M270.423 342.977C272.758 347.411 273.225 352.544 272.758 357.443C272.058 362.81 270.189 367.709 267.854 372.609C261.082 385.908 250.34 397.341 237.029 404.34C225.119 410.873 211.107 413.906 197.563 412.973C201.066 399.907 199.431 385.208 192.425 373.309C200.365 374.942 208.539 376.342 217.179 376.342C225.352 376.342 234.46 375.175 240.532 369.809C246.603 364.443 248.472 355.81 251.974 348.577C254.543 343.211 259.681 337.844 265.519 339.478C267.621 339.944 269.255 341.344 270.423 342.977Z" fill="url(#paint16_linear)"/>
<path d="M251.741 358.61C248.472 368.876 237.963 375.176 227.221 376.809C216.479 378.442 205.97 376.809 195.461 374.709C199.198 382.409 201.299 390.808 201.299 399.208C216.245 399.208 230.724 394.775 242.633 385.442C246.837 382.175 250.807 378.442 252.909 373.543C255.477 368.876 254.543 363.043 251.741 358.61Z" fill="url(#paint17_linear)"/>
<path d="M134.745 119.225L129.14 131.358C174.911 136.258 254.31 150.49 388.821 186.421L389.755 181.755C389.755 181.755 294.243 129.491 239.831 119.925C171.642 108.493 134.745 119.225 134.745 119.225Z" fill="#BFA89B" fill-opacity="0.25"/>
<path d="M400.264 88.8937C407.97 119.692 403.3 153.29 389.755 181.988C374.81 174.988 359.864 168.455 344.451 162.389C343.284 160.989 342.116 159.589 340.948 158.189L344.685 148.39C351.224 130.424 358.93 89.127 359.163 68.1284C338.146 41.2968 311.057 18.4316 280.699 1.39941C327.871 20.0649 375.51 57.3958 400.264 88.8937Z" fill="#00686E"/>
<path d="M359.163 68.3622C358.93 89.3609 351.224 130.658 344.685 148.624C310.824 124.125 272.992 104.527 233.059 90.9941C236.562 63.2292 249.173 37.3309 267.621 12.5992C247.071 34.0645 232.359 60.1961 224.886 88.1943C206.904 82.5946 188.456 78.1616 170.007 75.1285C174.911 64.1625 189.156 42.6972 189.156 42.6972C213.21 23.7985 243.802 7.23286 276.262 0C277.663 0.466636 279.064 1.16659 280.699 1.63323C311.291 18.6655 338.146 41.5306 359.163 68.3622Z" fill="url(#paint18_linear)"/>
<path d="M344.685 148.391L340.948 158.191C331.14 147.225 316.895 136.259 303.818 128.793C281.633 116.427 256.879 106.394 231.425 98.4612L232.826 94.0282C232.826 92.8616 233.059 91.9283 233.293 90.7617C272.992 104.294 310.823 123.893 344.685 148.391Z" fill="#00CDBD"/>
<path d="M267.621 12.5996C249.173 37.3313 236.329 62.9963 233.059 90.7612C230.49 89.8279 227.688 88.8946 225.119 88.1947C232.359 60.1965 247.071 34.0649 267.621 12.5996Z" fill="#00686E"/>
<path d="M170.007 75.1282C188.689 78.1613 206.904 82.5944 224.886 88.194C227.688 89.1273 230.257 89.8272 232.826 90.7605C232.592 91.9271 232.592 92.8604 232.359 94.027L231.191 98.46C219.048 94.7269 206.904 91.4605 194.761 88.4273C158.798 79.5612 121.2 75.5948 84.3032 79.0946C84.5367 76.0615 85.2373 72.795 86.872 70.6951C114.662 69.0619 142.685 70.6952 170.007 75.1282Z" fill="#00CDBD"/>
<path d="M340.948 158.19C342.116 159.589 343.284 160.989 344.451 162.389C290.04 141.157 232.826 126.225 174.911 118.059C161.6 116.192 147.355 114.792 134.978 119.225C116.063 108.959 95.5125 98.9268 84.3032 81.4279C84.3032 80.7279 84.3032 80.028 84.5368 79.0947C121.434 75.5949 159.032 79.5613 194.995 88.4274C207.138 91.4606 219.281 94.727 231.425 98.4601C256.879 106.393 281.866 116.426 303.818 128.791C316.895 136.258 331.14 147.224 340.948 158.19Z" fill="#00686E"/>
<defs>
<linearGradient id="paint0_linear" x1="183.474" y1="516.686" x2="165.245" y2="435.837" gradientUnits="userSpaceOnUse">
<stop stop-color="#FBA746"/>
<stop offset="1" stop-color="#DE731F"/>
</linearGradient>
<linearGradient id="paint1_linear" x1="145.485" y1="456.523" x2="156.486" y2="522.583" gradientUnits="userSpaceOnUse">
<stop stop-color="#FF8759"/>
<stop offset="1" stop-color="#AB1535"/>
</linearGradient>
<linearGradient id="paint2_linear" x1="161.389" y1="439.964" x2="159.817" y2="506.651" gradientUnits="userSpaceOnUse">
<stop stop-color="#BCBD99"/>
<stop offset="0.1622" stop-color="#9C9D7F"/>
<stop offset="0.7425" stop-color="#2C2D24"/>
<stop offset="1"/>
</linearGradient>
<linearGradient id="paint3_linear" x1="252.173" y1="434.172" x2="172.918" y2="337.848" gradientUnits="userSpaceOnUse">
<stop stop-color="#FBA746"/>
<stop offset="1" stop-color="#DE731F"/>
</linearGradient>
<linearGradient id="paint4_linear" x1="172.184" y1="332.294" x2="216.52" y2="401.218" gradientUnits="userSpaceOnUse">
<stop stop-color="#BCBD99"/>
<stop offset="0.1622" stop-color="#9C9D7F"/>
<stop offset="0.7425" stop-color="#2C2D24"/>
<stop offset="1"/>
</linearGradient>
<linearGradient id="paint5_linear" x1="277.645" y1="444.836" x2="280.945" y2="518.678" gradientUnits="userSpaceOnUse">
<stop stop-color="#FF8759"/>
<stop offset="1" stop-color="#AB1535"/>
</linearGradient>
<linearGradient id="paint6_linear" x1="283.286" y1="545.744" x2="275.115" y2="382.802" gradientUnits="userSpaceOnUse">
<stop stop-color="#FBA746"/>
<stop offset="1" stop-color="#DE731F"/>
</linearGradient>
<linearGradient id="paint7_linear" x1="268.241" y1="408.631" x2="280.592" y2="488.481" gradientUnits="userSpaceOnUse">
<stop stop-color="#BCBD99"/>
<stop offset="0.1622" stop-color="#9C9D7F"/>
<stop offset="0.7425" stop-color="#2C2D24"/>
<stop offset="1"/>
</linearGradient>
<radialGradient id="paint8_radial" cx="0" cy="0" r="1" gradientUnits="userSpaceOnUse" gradientTransform="translate(201.175 122.756) rotate(18.2983) scale(164.21 164.093)">
<stop stop-color="#3E6785"/>
<stop offset="1" stop-color="#1D2243"/>
</radialGradient>
<linearGradient id="paint9_linear" x1="364.203" y1="184.704" x2="316.887" y2="281.723" gradientUnits="userSpaceOnUse">
<stop stop-color="#FF8759"/>
<stop offset="1" stop-color="#AB1535"/>
</linearGradient>
<linearGradient id="paint10_linear" x1="373.107" y1="169.409" x2="323.554" y2="271.014" gradientUnits="userSpaceOnUse">
<stop stop-color="#FF8759"/>
<stop offset="1" stop-color="#AB1535"/>
</linearGradient>
<linearGradient id="paint11_linear" x1="253.391" y1="330.159" x2="253.617" y2="61.1868" gradientUnits="userSpaceOnUse">
<stop stop-color="#FBA746"/>
<stop offset="1" stop-color="#DE731F"/>
</linearGradient>
<linearGradient id="paint12_linear" x1="209.808" y1="18.7299" x2="239.145" y2="209.316" gradientUnits="userSpaceOnUse">
<stop stop-color="#BCBD99"/>
<stop offset="0.1622" stop-color="#9C9D7F"/>
<stop offset="0.7425" stop-color="#2C2D24"/>
<stop offset="1"/>
</linearGradient>
<linearGradient id="paint13_linear" x1="150.763" y1="198.001" x2="154.728" y2="98.9193" gradientUnits="userSpaceOnUse">
<stop stop-color="#BCBD99"/>
<stop offset="0.1622" stop-color="#9C9D7F"/>
<stop offset="0.7425" stop-color="#2C2D24"/>
<stop offset="1"/>
</linearGradient>
<linearGradient id="paint14_linear" x1="227.309" y1="211.323" x2="259.956" y2="69.0464" gradientUnits="userSpaceOnUse">
<stop stop-color="#BCBD99"/>
<stop offset="0.1622" stop-color="#9C9D7F"/>
<stop offset="0.7425" stop-color="#2C2D24"/>
<stop offset="1"/>
</linearGradient>
<linearGradient id="paint15_linear" x1="161.764" y1="365.163" x2="203.26" y2="463.331" gradientUnits="userSpaceOnUse">
<stop stop-color="#3E6785"/>
<stop offset="1" stop-color="#1D2243"/>
</linearGradient>
<linearGradient id="paint16_linear" x1="221.531" y1="356.084" x2="264.291" y2="430.667" gradientUnits="userSpaceOnUse">
<stop stop-color="#FBA746"/>
<stop offset="1" stop-color="#DE731F"/>
</linearGradient>
<linearGradient id="paint17_linear" x1="197.685" y1="354.545" x2="255.73" y2="403.431" gradientUnits="userSpaceOnUse">
<stop stop-color="#BCBD99"/>
<stop offset="0.1622" stop-color="#9C9D7F"/>
<stop offset="0.7425" stop-color="#2C2D24"/>
<stop offset="1"/>
</linearGradient>
<linearGradient id="paint18_linear" x1="281.383" y1="-8.53151" x2="262.525" y2="90.56" gradientUnits="userSpaceOnUse">
<stop stop-color="#7EEDC2"/>
<stop offset="1" stop-color="#00B2A3"/>
</linearGradient>
</defs>
</svg>
