<svg width="278" height="308" viewBox="0 0 278 308" fill="none" xmlns="http://www.w3.org/2000/svg">
<g filter="url(#filter0_d)">
<rect x="4" width="270" height="300" fill="#99CFB2"/>
<path d="M52.386 235V222.31H57.894C59.286 222.31 60.36 222.658 61.116 223.354C61.872 224.05 62.25 225.022 62.25 226.27C62.25 227.518 61.872 228.496 61.116 229.204C60.36 229.9 59.286 230.248 57.894 230.248H54.69V235H52.386ZM54.69 228.43H57.534C59.19 228.43 60.018 227.71 60.018 226.27C60.018 224.842 59.19 224.128 57.534 224.128H54.69V228.43ZM67.4692 235.18C66.5572 235.18 65.7652 234.994 65.0932 234.622C64.4212 234.25 63.8992 233.722 63.5272 233.038C63.1552 232.342 62.9692 231.526 62.9692 230.59C62.9692 229.654 63.1552 228.844 63.5272 228.16C63.8992 227.476 64.4212 226.948 65.0932 226.576C65.7652 226.204 66.5572 226.018 67.4692 226.018C68.3812 226.018 69.1732 226.204 69.8452 226.576C70.5172 226.948 71.0392 227.476 71.4112 228.16C71.7832 228.844 71.9692 229.654 71.9692 230.59C71.9692 231.526 71.7832 232.342 71.4112 233.038C71.0392 233.722 70.5172 234.25 69.8452 234.622C69.1732 234.994 68.3812 235.18 67.4692 235.18ZM67.4692 233.47C68.1412 233.47 68.6812 233.23 69.0892 232.75C69.4972 232.258 69.7012 231.538 69.7012 230.59C69.7012 229.63 69.4972 228.916 69.0892 228.448C68.6812 227.968 68.1412 227.728 67.4692 227.728C66.7972 227.728 66.2572 227.968 65.8492 228.448C65.4412 228.916 65.2372 229.63 65.2372 230.59C65.2372 231.538 65.4412 232.258 65.8492 232.75C66.2572 233.23 66.7972 233.47 67.4692 233.47ZM76.0805 235L72.6065 226.198H74.9105L77.1605 232.39L79.4285 226.198H81.0125L83.2805 232.426L85.5305 226.198H87.7085L84.2525 235H82.2905L80.1485 229.33L78.0425 235H76.0805ZM93.1584 235.18C92.1624 235.18 91.3044 234.994 90.5844 234.622C89.8644 234.25 89.3064 233.722 88.9104 233.038C88.5264 232.354 88.3344 231.544 88.3344 230.608C88.3344 229.696 88.5204 228.898 88.8924 228.214C89.2764 227.53 89.7984 226.996 90.4584 226.612C91.1304 226.216 91.8924 226.018 92.7444 226.018C93.9924 226.018 94.9764 226.414 95.6964 227.206C96.4284 227.998 96.7944 229.078 96.7944 230.446V231.112H90.4944C90.6624 232.684 91.5624 233.47 93.1944 233.47C93.6864 233.47 94.1784 233.398 94.6704 233.254C95.1624 233.098 95.6124 232.858 96.0204 232.534L96.6504 234.046C96.2304 234.394 95.7024 234.67 95.0664 234.874C94.4304 235.078 93.7944 235.18 93.1584 235.18ZM92.8344 227.548C92.1744 227.548 91.6404 227.752 91.2324 228.16C90.8244 228.568 90.5784 229.12 90.4944 229.816H94.9224C94.8744 229.084 94.6704 228.526 94.3104 228.142C93.9624 227.746 93.4704 227.548 92.8344 227.548ZM98.5763 235V226.198H100.772V227.746C101.204 226.702 102.128 226.126 103.544 226.018L104.228 225.964L104.372 227.872L103.076 227.998C101.6 228.142 100.862 228.898 100.862 230.266V235H98.5763ZM109.822 235.18C108.826 235.18 107.968 234.994 107.248 234.622C106.528 234.25 105.97 233.722 105.574 233.038C105.19 232.354 104.998 231.544 104.998 230.608C104.998 229.696 105.184 228.898 105.556 228.214C105.94 227.53 106.462 226.996 107.122 226.612C107.794 226.216 108.556 226.018 109.408 226.018C110.656 226.018 111.64 226.414 112.36 227.206C113.092 227.998 113.458 229.078 113.458 230.446V231.112H107.158C107.326 232.684 108.226 233.47 109.858 233.47C110.35 233.47 110.842 233.398 111.334 233.254C111.826 233.098 112.276 232.858 112.684 232.534L113.314 234.046C112.894 234.394 112.366 234.67 111.73 234.874C111.094 235.078 110.458 235.18 109.822 235.18ZM109.498 227.548C108.838 227.548 108.304 227.752 107.896 228.16C107.488 228.568 107.242 229.12 107.158 229.816H111.586C111.538 229.084 111.334 228.526 110.974 228.142C110.626 227.746 110.134 227.548 109.498 227.548ZM118.624 235.18C117.856 235.18 117.178 234.994 116.59 234.622C116.014 234.25 115.564 233.722 115.24 233.038C114.916 232.342 114.754 231.526 114.754 230.59C114.754 229.642 114.916 228.832 115.24 228.16C115.564 227.476 116.014 226.948 116.59 226.576C117.178 226.204 117.856 226.018 118.624 226.018C119.248 226.018 119.812 226.156 120.316 226.432C120.82 226.708 121.198 227.074 121.45 227.53V222.31H123.7V235H121.504V233.542C121.264 234.046 120.886 234.448 120.37 234.748C119.854 235.036 119.272 235.18 118.624 235.18ZM119.254 233.47C119.926 233.47 120.466 233.23 120.874 232.75C121.282 232.258 121.486 231.538 121.486 230.59C121.486 229.63 121.282 228.916 120.874 228.448C120.466 227.968 119.926 227.728 119.254 227.728C118.582 227.728 118.042 227.968 117.634 228.448C117.226 228.916 117.022 229.63 117.022 230.59C117.022 231.538 117.226 232.258 117.634 232.75C118.042 233.23 118.582 233.47 119.254 233.47ZM135.961 235.18C135.313 235.18 134.731 235.036 134.215 234.748C133.711 234.46 133.333 234.07 133.081 233.578V235H130.885V222.31H133.135V227.494C133.399 227.05 133.777 226.696 134.269 226.432C134.773 226.156 135.337 226.018 135.961 226.018C136.741 226.018 137.419 226.204 137.995 226.576C138.571 226.948 139.021 227.476 139.345 228.16C139.669 228.832 139.831 229.642 139.831 230.59C139.831 231.526 139.669 232.342 139.345 233.038C139.021 233.722 138.565 234.25 137.977 234.622C137.401 234.994 136.729 235.18 135.961 235.18ZM135.331 233.47C136.003 233.47 136.543 233.23 136.951 232.75C137.359 232.258 137.563 231.538 137.563 230.59C137.563 229.63 137.359 228.916 136.951 228.448C136.543 227.968 136.003 227.728 135.331 227.728C134.659 227.728 134.119 227.968 133.711 228.448C133.303 228.916 133.099 229.63 133.099 230.59C133.099 231.538 133.303 232.258 133.711 232.75C134.119 233.23 134.659 233.47 135.331 233.47ZM142.294 238.24L143.914 234.64L140.26 226.198H142.654L145.12 232.354L147.64 226.198H149.908L144.616 238.24H142.294ZM156.044 235V222.31H157.772L164.594 231.166V222.31H166.736V235H165.026L158.186 226.108V235H156.044ZM172.479 235.18C170.319 235.18 169.239 233.968 169.239 231.544V226.198H171.489V231.58C171.489 232.204 171.615 232.666 171.867 232.966C172.119 233.266 172.521 233.416 173.073 233.416C173.673 233.416 174.165 233.212 174.549 232.804C174.933 232.384 175.125 231.832 175.125 231.148V226.198H177.375V235H175.179V233.686C174.591 234.682 173.691 235.18 172.479 235.18ZM182.939 235.18C182.195 235.18 181.499 235.09 180.851 234.91C180.203 234.73 179.663 234.472 179.231 234.136L179.807 232.66C180.251 232.96 180.749 233.194 181.301 233.362C181.853 233.518 182.405 233.596 182.957 233.596C183.533 233.596 183.959 233.5 184.235 233.308C184.523 233.104 184.667 232.84 184.667 232.516C184.667 232.012 184.295 231.688 183.551 231.544L181.751 231.202C180.227 230.914 179.465 230.122 179.465 228.826C179.465 228.25 179.621 227.752 179.933 227.332C180.257 226.912 180.701 226.588 181.265 226.36C181.829 226.132 182.477 226.018 183.209 226.018C183.833 226.018 184.433 226.108 185.009 226.288C185.585 226.456 186.077 226.714 186.485 227.062L185.873 228.538C185.525 228.25 185.105 228.022 184.613 227.854C184.133 227.686 183.671 227.602 183.227 227.602C182.639 227.602 182.201 227.704 181.913 227.908C181.637 228.112 181.499 228.382 181.499 228.718C181.499 229.246 181.841 229.57 182.525 229.69L184.325 230.032C185.105 230.176 185.693 230.44 186.089 230.824C186.497 231.208 186.701 231.724 186.701 232.372C186.701 233.248 186.359 233.938 185.675 234.442C184.991 234.934 184.079 235.18 182.939 235.18ZM191.404 235.18C190.768 235.18 190.198 235.06 189.694 234.82C189.202 234.568 188.812 234.232 188.524 233.812C188.248 233.392 188.11 232.918 188.11 232.39C188.11 231.742 188.278 231.232 188.614 230.86C188.95 230.476 189.496 230.2 190.252 230.032C191.008 229.864 192.022 229.78 193.294 229.78H193.924V229.402C193.924 228.802 193.792 228.37 193.528 228.106C193.264 227.842 192.82 227.71 192.196 227.71C191.704 227.71 191.2 227.788 190.684 227.944C190.168 228.088 189.646 228.316 189.118 228.628L188.47 227.098C188.782 226.882 189.148 226.696 189.568 226.54C190 226.372 190.45 226.246 190.918 226.162C191.398 226.066 191.848 226.018 192.268 226.018C193.552 226.018 194.506 226.318 195.13 226.918C195.754 227.506 196.066 228.424 196.066 229.672V235H193.96V233.596C193.756 234.088 193.432 234.478 192.988 234.766C192.544 235.042 192.016 235.18 191.404 235.18ZM191.872 233.632C192.46 233.632 192.946 233.428 193.33 233.02C193.726 232.612 193.924 232.096 193.924 231.472V231.076H193.312C192.184 231.076 191.398 231.166 190.954 231.346C190.522 231.514 190.306 231.826 190.306 232.282C190.306 232.678 190.444 233.002 190.72 233.254C190.996 233.506 191.38 233.632 191.872 233.632Z" fill="black"/>
<path d="M198.566 235V222.31H203.282C205.406 222.31 207.044 222.856 208.196 223.948C209.36 225.04 209.942 226.606 209.942 228.646C209.942 230.674 209.36 232.24 208.196 233.344C207.044 234.448 205.406 235 203.282 235H198.566ZM200.87 233.092H203.138C206.066 233.092 207.53 231.61 207.53 228.646C207.53 225.694 206.066 224.218 203.138 224.218H200.87V233.092ZM211.917 224.308V222.112H214.437V224.308H211.917ZM212.061 235V226.198H214.311V235H212.061ZM216.649 238.24V226.198H218.845V227.602C219.097 227.122 219.475 226.738 219.979 226.45C220.495 226.162 221.077 226.018 221.725 226.018C222.493 226.018 223.165 226.204 223.741 226.576C224.329 226.948 224.785 227.476 225.109 228.16C225.433 228.832 225.595 229.642 225.595 230.59C225.595 231.526 225.433 232.342 225.109 233.038C224.785 233.722 224.335 234.25 223.759 234.622C223.183 234.994 222.505 235.18 221.725 235.18C221.101 235.18 220.537 235.048 220.033 234.784C219.541 234.508 219.163 234.142 218.899 233.686V238.24H216.649ZM221.095 233.47C221.767 233.47 222.307 233.23 222.715 232.75C223.123 232.258 223.327 231.538 223.327 230.59C223.327 229.63 223.123 228.916 222.715 228.448C222.307 227.968 221.767 227.728 221.095 227.728C220.423 227.728 219.883 227.968 219.475 228.448C219.067 228.916 218.863 229.63 218.863 230.59C218.863 231.538 219.067 232.258 219.475 232.75C219.883 233.23 220.423 233.47 221.095 233.47Z" fill="#FF0000"/>
<circle cx="80" cy="115" r="44" fill="white"/>
<path d="M140.848 123V106.08H143.152L152.248 117.888V106.08H155.104V123H152.824L143.704 111.144V123H140.848ZM162.761 123.24C159.881 123.24 158.441 121.624 158.441 118.392V111.264H161.441V118.44C161.441 119.272 161.609 119.888 161.945 120.288C162.281 120.688 162.817 120.888 163.553 120.888C164.353 120.888 165.009 120.616 165.521 120.072C166.033 119.512 166.289 118.776 166.289 117.864V111.264H169.289V123H166.361V121.248C165.577 122.576 164.377 123.24 162.761 123.24ZM176.708 123.24C175.716 123.24 174.788 123.12 173.924 122.88C173.06 122.64 172.34 122.296 171.764 121.848L172.532 119.88C173.124 120.28 173.788 120.592 174.524 120.816C175.26 121.024 175.996 121.128 176.732 121.128C177.5 121.128 178.068 121 178.436 120.744C178.82 120.472 179.012 120.12 179.012 119.688C179.012 119.016 178.516 118.584 177.524 118.392L175.124 117.936C173.092 117.552 172.076 116.496 172.076 114.768C172.076 114 172.284 113.336 172.7 112.776C173.132 112.216 173.724 111.784 174.476 111.48C175.228 111.176 176.092 111.024 177.068 111.024C177.9 111.024 178.7 111.144 179.468 111.384C180.236 111.608 180.892 111.952 181.436 112.416L180.62 114.384C180.156 114 179.596 113.696 178.94 113.472C178.3 113.248 177.684 113.136 177.092 113.136C176.308 113.136 175.724 113.272 175.34 113.544C174.972 113.816 174.788 114.176 174.788 114.624C174.788 115.328 175.244 115.76 176.156 115.92L178.556 116.376C179.596 116.568 180.38 116.92 180.908 117.432C181.452 117.944 181.724 118.632 181.724 119.496C181.724 120.664 181.268 121.584 180.356 122.256C179.444 122.912 178.228 123.24 176.708 123.24ZM187.994 123.24C187.146 123.24 186.386 123.08 185.714 122.76C185.058 122.424 184.538 121.976 184.154 121.416C183.786 120.856 183.602 120.224 183.602 119.52C183.602 118.656 183.826 117.976 184.274 117.48C184.722 116.968 185.45 116.6 186.458 116.376C187.466 116.152 188.818 116.04 190.514 116.04H191.354V115.536C191.354 114.736 191.178 114.16 190.826 113.808C190.474 113.456 189.882 113.28 189.05 113.28C188.394 113.28 187.722 113.384 187.034 113.592C186.346 113.784 185.65 114.088 184.946 114.504L184.082 112.464C184.498 112.176 184.986 111.928 185.546 111.72C186.122 111.496 186.722 111.328 187.346 111.216C187.986 111.088 188.586 111.024 189.146 111.024C190.858 111.024 192.13 111.424 192.962 112.224C193.794 113.008 194.21 114.232 194.21 115.896V123H191.402V121.128C191.13 121.784 190.698 122.304 190.106 122.688C189.514 123.056 188.81 123.24 187.994 123.24ZM188.618 121.176C189.402 121.176 190.05 120.904 190.562 120.36C191.09 119.816 191.354 119.128 191.354 118.296V117.768H190.538C189.034 117.768 187.986 117.888 187.394 118.128C186.818 118.352 186.53 118.768 186.53 119.376C186.53 119.904 186.714 120.336 187.082 120.672C187.45 121.008 187.962 121.176 188.618 121.176Z" fill="black"/>
<path d="M197.543 123V106.08H204.887C206.743 106.08 208.175 106.544 209.183 107.472C210.191 108.4 210.695 109.696 210.695 111.36C210.695 113.024 210.191 114.328 209.183 115.272C208.175 116.2 206.743 116.664 204.887 116.664H200.615V123H197.543ZM200.615 114.24H204.407C206.615 114.24 207.719 113.28 207.719 111.36C207.719 109.456 206.615 108.504 204.407 108.504H200.615V114.24ZM216.213 123.24C215.365 123.24 214.605 123.08 213.933 122.76C213.277 122.424 212.757 121.976 212.373 121.416C212.005 120.856 211.821 120.224 211.821 119.52C211.821 118.656 212.045 117.976 212.493 117.48C212.941 116.968 213.669 116.6 214.677 116.376C215.685 116.152 217.037 116.04 218.733 116.04H219.573V115.536C219.573 114.736 219.397 114.16 219.045 113.808C218.693 113.456 218.101 113.28 217.269 113.28C216.613 113.28 215.941 113.384 215.253 113.592C214.565 113.784 213.869 114.088 213.165 114.504L212.301 112.464C212.717 112.176 213.205 111.928 213.765 111.72C214.341 111.496 214.941 111.328 215.565 111.216C216.205 111.088 216.805 111.024 217.365 111.024C219.077 111.024 220.349 111.424 221.181 112.224C222.013 113.008 222.429 114.232 222.429 115.896V123H219.621V121.128C219.349 121.784 218.917 122.304 218.325 122.688C217.733 123.056 217.029 123.24 216.213 123.24ZM216.837 121.176C217.621 121.176 218.269 120.904 218.781 120.36C219.309 119.816 219.573 119.128 219.573 118.296V117.768H218.757C217.253 117.768 216.205 117.888 215.613 118.128C215.037 118.352 214.749 118.768 214.749 119.376C214.749 119.904 214.933 120.336 215.301 120.672C215.669 121.008 216.181 121.176 216.837 121.176ZM226.413 127.32L228.573 122.52L223.701 111.264H226.893L230.181 119.472L233.541 111.264H236.565L229.509 127.32H226.413Z" fill="#FF0000"/>
<path d="M64.5 104.5H96.9996M96.9996 104.5H102.5V132.5H58V98H96.9996V99.5V104.5Z" stroke="black" stroke-width="3"/>
</g>
<defs>
<filter id="filter0_d" x="0" y="0" width="278" height="308" filterUnits="userSpaceOnUse" color-interpolation-filters="sRGB">
<feFlood flood-opacity="0" result="BackgroundImageFix"/>
<feColorMatrix in="SourceAlpha" type="matrix" values="0 0 0 0 0 0 0 0 0 0 0 0 0 0 0 0 0 0 127 0" result="hardAlpha"/>
<feOffset dy="4"/>
<feGaussianBlur stdDeviation="2"/>
<feComposite in2="hardAlpha" operator="out"/>
<feColorMatrix type="matrix" values="0 0 0 0 0 0 0 0 0 0 0 0 0 0 0 0 0 0 0.25 0"/>
<feBlend mode="normal" in2="BackgroundImageFix" result="effect1_dropShadow"/>
<feBlend mode="normal" in="SourceGraphic" in2="effect1_dropShadow" result="shape"/>
</filter>
</defs>
</svg>
