<svg width="201" height="171" viewBox="0 0 201 171" fill="none" xmlns="http://www.w3.org/2000/svg">
<path d="M16.386 164V151.31H21.894C23.286 151.31 24.36 151.658 25.116 152.354C25.872 153.05 26.25 154.022 26.25 155.27C26.25 156.518 25.872 157.496 25.116 158.204C24.36 158.9 23.286 159.248 21.894 159.248H18.69V164H16.386ZM18.69 157.43H21.534C23.19 157.43 24.018 156.71 24.018 155.27C24.018 153.842 23.19 153.128 21.534 153.128H18.69V157.43ZM31.4692 164.18C30.5572 164.18 29.7652 163.994 29.0932 163.622C28.4212 163.25 27.8992 162.722 27.5272 162.038C27.1552 161.342 26.9692 160.526 26.9692 159.59C26.9692 158.654 27.1552 157.844 27.5272 157.16C27.8992 156.476 28.4212 155.948 29.0932 155.576C29.7652 155.204 30.5572 155.018 31.4692 155.018C32.3812 155.018 33.1732 155.204 33.8452 155.576C34.5172 155.948 35.0392 156.476 35.4112 157.16C35.7832 157.844 35.9692 158.654 35.9692 159.59C35.9692 160.526 35.7832 161.342 35.4112 162.038C35.0392 162.722 34.5172 163.25 33.8452 163.622C33.1732 163.994 32.3812 164.18 31.4692 164.18ZM31.4692 162.47C32.1412 162.47 32.6812 162.23 33.0892 161.75C33.4972 161.258 33.7012 160.538 33.7012 159.59C33.7012 158.63 33.4972 157.916 33.0892 157.448C32.6812 156.968 32.1412 156.728 31.4692 156.728C30.7972 156.728 30.2572 156.968 29.8492 157.448C29.4412 157.916 29.2372 158.63 29.2372 159.59C29.2372 160.538 29.4412 161.258 29.8492 161.75C30.2572 162.23 30.7972 162.47 31.4692 162.47ZM40.0805 164L36.6065 155.198H38.9105L41.1605 161.39L43.4285 155.198H45.0125L47.2805 161.426L49.5305 155.198H51.7085L48.2525 164H46.2905L44.1485 158.33L42.0425 164H40.0805ZM57.1584 164.18C56.1624 164.18 55.3044 163.994 54.5844 163.622C53.8644 163.25 53.3064 162.722 52.9104 162.038C52.5264 161.354 52.3344 160.544 52.3344 159.608C52.3344 158.696 52.5204 157.898 52.8924 157.214C53.2764 156.53 53.7984 155.996 54.4584 155.612C55.1304 155.216 55.8924 155.018 56.7444 155.018C57.9924 155.018 58.9764 155.414 59.6964 156.206C60.4284 156.998 60.7944 158.078 60.7944 159.446V160.112H54.4944C54.6624 161.684 55.5624 162.47 57.1944 162.47C57.6864 162.47 58.1784 162.398 58.6704 162.254C59.1624 162.098 59.6124 161.858 60.0204 161.534L60.6504 163.046C60.2304 163.394 59.7024 163.67 59.0664 163.874C58.4304 164.078 57.7944 164.18 57.1584 164.18ZM56.8344 156.548C56.1744 156.548 55.6404 156.752 55.2324 157.16C54.8244 157.568 54.5784 158.12 54.4944 158.816H58.9224C58.8744 158.084 58.6704 157.526 58.3104 157.142C57.9624 156.746 57.4704 156.548 56.8344 156.548ZM62.5763 164V155.198H64.7723V156.746C65.2043 155.702 66.1283 155.126 67.5443 155.018L68.2283 154.964L68.3723 156.872L67.0763 156.998C65.6003 157.142 64.8623 157.898 64.8623 159.266V164H62.5763ZM73.8225 164.18C72.8265 164.18 71.9685 163.994 71.2485 163.622C70.5285 163.25 69.9705 162.722 69.5745 162.038C69.1905 161.354 68.9985 160.544 68.9985 159.608C68.9985 158.696 69.1845 157.898 69.5565 157.214C69.9405 156.53 70.4625 155.996 71.1225 155.612C71.7945 155.216 72.5565 155.018 73.4085 155.018C74.6565 155.018 75.6405 155.414 76.3605 156.206C77.0925 156.998 77.4585 158.078 77.4585 159.446V160.112H71.1585C71.3265 161.684 72.2265 162.47 73.8585 162.47C74.3505 162.47 74.8425 162.398 75.3345 162.254C75.8265 162.098 76.2765 161.858 76.6845 161.534L77.3145 163.046C76.8945 163.394 76.3665 163.67 75.7305 163.874C75.0945 164.078 74.4585 164.18 73.8225 164.18ZM73.4985 156.548C72.8385 156.548 72.3045 156.752 71.8965 157.16C71.4885 157.568 71.2425 158.12 71.1585 158.816H75.5865C75.5385 158.084 75.3345 157.526 74.9745 157.142C74.6265 156.746 74.1345 156.548 73.4985 156.548ZM82.6243 164.18C81.8563 164.18 81.1783 163.994 80.5903 163.622C80.0143 163.25 79.5643 162.722 79.2403 162.038C78.9163 161.342 78.7543 160.526 78.7543 159.59C78.7543 158.642 78.9163 157.832 79.2403 157.16C79.5643 156.476 80.0143 155.948 80.5903 155.576C81.1783 155.204 81.8563 155.018 82.6243 155.018C83.2483 155.018 83.8123 155.156 84.3163 155.432C84.8203 155.708 85.1983 156.074 85.4503 156.53V151.31H87.7003V164H85.5043V162.542C85.2643 163.046 84.8863 163.448 84.3703 163.748C83.8543 164.036 83.2723 164.18 82.6243 164.18ZM83.2543 162.47C83.9263 162.47 84.4663 162.23 84.8743 161.75C85.2823 161.258 85.4863 160.538 85.4863 159.59C85.4863 158.63 85.2823 157.916 84.8743 157.448C84.4663 156.968 83.9263 156.728 83.2543 156.728C82.5823 156.728 82.0423 156.968 81.6343 157.448C81.2263 157.916 81.0223 158.63 81.0223 159.59C81.0223 160.538 81.2263 161.258 81.6343 161.75C82.0423 162.23 82.5823 162.47 83.2543 162.47ZM99.9608 164.18C99.3128 164.18 98.7308 164.036 98.2148 163.748C97.7108 163.46 97.3328 163.07 97.0808 162.578V164H94.8848V151.31H97.1348V156.494C97.3988 156.05 97.7768 155.696 98.2688 155.432C98.7728 155.156 99.3368 155.018 99.9608 155.018C100.741 155.018 101.419 155.204 101.995 155.576C102.571 155.948 103.021 156.476 103.345 157.16C103.669 157.832 103.831 158.642 103.831 159.59C103.831 160.526 103.669 161.342 103.345 162.038C103.021 162.722 102.565 163.25 101.977 163.622C101.401 163.994 100.729 164.18 99.9608 164.18ZM99.3308 162.47C100.003 162.47 100.543 162.23 100.951 161.75C101.359 161.258 101.563 160.538 101.563 159.59C101.563 158.63 101.359 157.916 100.951 157.448C100.543 156.968 100.003 156.728 99.3308 156.728C98.6588 156.728 98.1188 156.968 97.7108 157.448C97.3028 157.916 97.0988 158.63 97.0988 159.59C97.0988 160.538 97.3028 161.258 97.7108 161.75C98.1188 162.23 98.6588 162.47 99.3308 162.47ZM106.294 167.24L107.914 163.64L104.26 155.198H106.654L109.12 161.354L111.64 155.198H113.908L108.616 167.24H106.294ZM120.044 164V151.31H121.772L128.594 160.166V151.31H130.736V164H129.026L122.186 155.108V164H120.044ZM136.479 164.18C134.319 164.18 133.239 162.968 133.239 160.544V155.198H135.489V160.58C135.489 161.204 135.615 161.666 135.867 161.966C136.119 162.266 136.521 162.416 137.073 162.416C137.673 162.416 138.165 162.212 138.549 161.804C138.933 161.384 139.125 160.832 139.125 160.148V155.198H141.375V164H139.179V162.686C138.591 163.682 137.691 164.18 136.479 164.18ZM146.939 164.18C146.195 164.18 145.499 164.09 144.851 163.91C144.203 163.73 143.663 163.472 143.231 163.136L143.807 161.66C144.251 161.96 144.749 162.194 145.301 162.362C145.853 162.518 146.405 162.596 146.957 162.596C147.533 162.596 147.959 162.5 148.235 162.308C148.523 162.104 148.667 161.84 148.667 161.516C148.667 161.012 148.295 160.688 147.551 160.544L145.751 160.202C144.227 159.914 143.465 159.122 143.465 157.826C143.465 157.25 143.621 156.752 143.933 156.332C144.257 155.912 144.701 155.588 145.265 155.36C145.829 155.132 146.477 155.018 147.209 155.018C147.833 155.018 148.433 155.108 149.009 155.288C149.585 155.456 150.077 155.714 150.485 156.062L149.873 157.538C149.525 157.25 149.105 157.022 148.613 156.854C148.133 156.686 147.671 156.602 147.227 156.602C146.639 156.602 146.201 156.704 145.913 156.908C145.637 157.112 145.499 157.382 145.499 157.718C145.499 158.246 145.841 158.57 146.525 158.69L148.325 159.032C149.105 159.176 149.693 159.44 150.089 159.824C150.497 160.208 150.701 160.724 150.701 161.372C150.701 162.248 150.359 162.938 149.675 163.442C148.991 163.934 148.079 164.18 146.939 164.18ZM155.404 164.18C154.768 164.18 154.198 164.06 153.694 163.82C153.202 163.568 152.812 163.232 152.524 162.812C152.248 162.392 152.11 161.918 152.11 161.39C152.11 160.742 152.278 160.232 152.614 159.86C152.95 159.476 153.496 159.2 154.252 159.032C155.008 158.864 156.022 158.78 157.294 158.78H157.924V158.402C157.924 157.802 157.792 157.37 157.528 157.106C157.264 156.842 156.82 156.71 156.196 156.71C155.704 156.71 155.2 156.788 154.684 156.944C154.168 157.088 153.646 157.316 153.118 157.628L152.47 156.098C152.782 155.882 153.148 155.696 153.568 155.54C154 155.372 154.45 155.246 154.918 155.162C155.398 155.066 155.848 155.018 156.268 155.018C157.552 155.018 158.506 155.318 159.13 155.918C159.754 156.506 160.066 157.424 160.066 158.672V164H157.96V162.596C157.756 163.088 157.432 163.478 156.988 163.766C156.544 164.042 156.016 164.18 155.404 164.18ZM155.872 162.632C156.46 162.632 156.946 162.428 157.33 162.02C157.726 161.612 157.924 161.096 157.924 160.472V160.076H157.312C156.184 160.076 155.398 160.166 154.954 160.346C154.522 160.514 154.306 160.826 154.306 161.282C154.306 161.678 154.444 162.002 154.72 162.254C154.996 162.506 155.38 162.632 155.872 162.632Z" fill="black"/>
<path d="M162.566 164V151.31H167.282C169.406 151.31 171.044 151.856 172.196 152.948C173.36 154.04 173.942 155.606 173.942 157.646C173.942 159.674 173.36 161.24 172.196 162.344C171.044 163.448 169.406 164 167.282 164H162.566ZM164.87 162.092H167.138C170.066 162.092 171.53 160.61 171.53 157.646C171.53 154.694 170.066 153.218 167.138 153.218H164.87V162.092ZM175.917 153.308V151.112H178.437V153.308H175.917ZM176.061 164V155.198H178.311V164H176.061ZM180.649 167.24V155.198H182.845V156.602C183.097 156.122 183.475 155.738 183.979 155.45C184.495 155.162 185.077 155.018 185.725 155.018C186.493 155.018 187.165 155.204 187.741 155.576C188.329 155.948 188.785 156.476 189.109 157.16C189.433 157.832 189.595 158.642 189.595 159.59C189.595 160.526 189.433 161.342 189.109 162.038C188.785 162.722 188.335 163.25 187.759 163.622C187.183 163.994 186.505 164.18 185.725 164.18C185.101 164.18 184.537 164.048 184.033 163.784C183.541 163.508 183.163 163.142 182.899 162.686V167.24H180.649ZM185.095 162.47C185.767 162.47 186.307 162.23 186.715 161.75C187.123 161.258 187.327 160.538 187.327 159.59C187.327 158.63 187.123 157.916 186.715 157.448C186.307 156.968 185.767 156.728 185.095 156.728C184.423 156.728 183.883 156.968 183.475 157.448C183.067 157.916 182.863 158.63 182.863 159.59C182.863 160.538 183.067 161.258 183.475 161.75C183.883 162.23 184.423 162.47 185.095 162.47Z" fill="#FF0000"/>
<circle cx="44" cy="44" r="44" fill="white"/>
<path d="M104.848 52V35.08H107.152L116.248 46.888V35.08H119.104V52H116.824L107.704 40.144V52H104.848ZM126.761 52.24C123.881 52.24 122.441 50.624 122.441 47.392V40.264H125.441V47.44C125.441 48.272 125.609 48.888 125.945 49.288C126.281 49.688 126.817 49.888 127.553 49.888C128.353 49.888 129.009 49.616 129.521 49.072C130.033 48.512 130.289 47.776 130.289 46.864V40.264H133.289V52H130.361V50.248C129.577 51.576 128.377 52.24 126.761 52.24ZM140.708 52.24C139.716 52.24 138.788 52.12 137.924 51.88C137.06 51.64 136.34 51.296 135.764 50.848L136.532 48.88C137.124 49.28 137.788 49.592 138.524 49.816C139.26 50.024 139.996 50.128 140.732 50.128C141.5 50.128 142.068 50 142.436 49.744C142.82 49.472 143.012 49.12 143.012 48.688C143.012 48.016 142.516 47.584 141.524 47.392L139.124 46.936C137.092 46.552 136.076 45.496 136.076 43.768C136.076 43 136.284 42.336 136.7 41.776C137.132 41.216 137.724 40.784 138.476 40.48C139.228 40.176 140.092 40.024 141.068 40.024C141.9 40.024 142.7 40.144 143.468 40.384C144.236 40.608 144.892 40.952 145.436 41.416L144.62 43.384C144.156 43 143.596 42.696 142.94 42.472C142.3 42.248 141.684 42.136 141.092 42.136C140.308 42.136 139.724 42.272 139.34 42.544C138.972 42.816 138.788 43.176 138.788 43.624C138.788 44.328 139.244 44.76 140.156 44.92L142.556 45.376C143.596 45.568 144.38 45.92 144.908 46.432C145.452 46.944 145.724 47.632 145.724 48.496C145.724 49.664 145.268 50.584 144.356 51.256C143.444 51.912 142.228 52.24 140.708 52.24ZM151.994 52.24C151.146 52.24 150.386 52.08 149.714 51.76C149.058 51.424 148.538 50.976 148.154 50.416C147.786 49.856 147.602 49.224 147.602 48.52C147.602 47.656 147.826 46.976 148.274 46.48C148.722 45.968 149.45 45.6 150.458 45.376C151.466 45.152 152.818 45.04 154.514 45.04H155.354V44.536C155.354 43.736 155.178 43.16 154.826 42.808C154.474 42.456 153.882 42.28 153.05 42.28C152.394 42.28 151.722 42.384 151.034 42.592C150.346 42.784 149.65 43.088 148.946 43.504L148.082 41.464C148.498 41.176 148.986 40.928 149.546 40.72C150.122 40.496 150.722 40.328 151.346 40.216C151.986 40.088 152.586 40.024 153.146 40.024C154.858 40.024 156.13 40.424 156.962 41.224C157.794 42.008 158.21 43.232 158.21 44.896V52H155.402V50.128C155.13 50.784 154.698 51.304 154.106 51.688C153.514 52.056 152.81 52.24 151.994 52.24ZM152.618 50.176C153.402 50.176 154.05 49.904 154.562 49.36C155.09 48.816 155.354 48.128 155.354 47.296V46.768H154.538C153.034 46.768 151.986 46.888 151.394 47.128C150.818 47.352 150.53 47.768 150.53 48.376C150.53 48.904 150.714 49.336 151.082 49.672C151.45 50.008 151.962 50.176 152.618 50.176Z" fill="black"/>
<path d="M161.543 52V35.08H168.887C170.743 35.08 172.175 35.544 173.183 36.472C174.191 37.4 174.695 38.696 174.695 40.36C174.695 42.024 174.191 43.328 173.183 44.272C172.175 45.2 170.743 45.664 168.887 45.664H164.615V52H161.543ZM164.615 43.24H168.407C170.615 43.24 171.719 42.28 171.719 40.36C171.719 38.456 170.615 37.504 168.407 37.504H164.615V43.24ZM180.213 52.24C179.365 52.24 178.605 52.08 177.933 51.76C177.277 51.424 176.757 50.976 176.373 50.416C176.005 49.856 175.821 49.224 175.821 48.52C175.821 47.656 176.045 46.976 176.493 46.48C176.941 45.968 177.669 45.6 178.677 45.376C179.685 45.152 181.037 45.04 182.733 45.04H183.573V44.536C183.573 43.736 183.397 43.16 183.045 42.808C182.693 42.456 182.101 42.28 181.269 42.28C180.613 42.28 179.941 42.384 179.253 42.592C178.565 42.784 177.869 43.088 177.165 43.504L176.301 41.464C176.717 41.176 177.205 40.928 177.765 40.72C178.341 40.496 178.941 40.328 179.565 40.216C180.205 40.088 180.805 40.024 181.365 40.024C183.077 40.024 184.349 40.424 185.181 41.224C186.013 42.008 186.429 43.232 186.429 44.896V52H183.621V50.128C183.349 50.784 182.917 51.304 182.325 51.688C181.733 52.056 181.029 52.24 180.213 52.24ZM180.837 50.176C181.621 50.176 182.269 49.904 182.781 49.36C183.309 48.816 183.573 48.128 183.573 47.296V46.768H182.757C181.253 46.768 180.205 46.888 179.613 47.128C179.037 47.352 178.749 47.768 178.749 48.376C178.749 48.904 178.933 49.336 179.301 49.672C179.669 50.008 180.181 50.176 180.837 50.176ZM190.413 56.32L192.573 51.52L187.701 40.264H190.893L194.181 48.472L197.541 40.264H200.565L193.509 56.32H190.413Z" fill="#FF0000"/>
<path d="M28.5 33.5H60.9996M60.9996 33.5H66.5V61.5H22V27H60.9996V28.5V33.5Z" stroke="black" stroke-width="3"/>
</svg>
