<svg width="215" height="39" viewBox="0 0 215 39" fill="none" xmlns="http://www.w3.org/2000/svg">
<rect x="0.5" y="0.5" width="214" height="38" rx="16.5" fill="white" stroke="black"/>
<rect x="130" width="85" height="39" rx="17" fill="#F1D16C"/>
<path d="M27.5647 27.834L25.8187 25.008C25.4707 24.456 24.9007 24.18 24.1087 24.18C22.8847 24.18 21.8167 23.91 20.9047 23.37C19.9927 22.83 19.2847 22.074 18.7807 21.102C18.2767 20.118 18.0247 18.966 18.0247 17.646C18.0247 16.314 18.2767 15.162 18.7807 14.19C19.2847 13.218 19.9927 12.468 20.9047 11.94C21.8167 11.4 22.8907 11.13 24.1267 11.13C25.3627 11.13 26.4367 11.4 27.3487 11.94C28.2607 12.468 28.9687 13.218 29.4727 14.19C29.9767 15.162 30.2287 16.308 30.2287 17.628C30.2287 19.068 29.9287 20.304 29.3287 21.336C28.7407 22.368 27.9247 23.124 26.8807 23.604C27.3967 23.772 27.8407 24.174 28.2127 24.81L29.5267 26.898L27.5647 27.834ZM24.1267 22.2C25.2907 22.2 26.1967 21.798 26.8447 20.994C27.4927 20.19 27.8167 19.074 27.8167 17.646C27.8167 16.206 27.4927 15.09 26.8447 14.298C26.2087 13.506 25.3027 13.11 24.1267 13.11C22.9627 13.11 22.0567 13.506 21.4087 14.298C20.7607 15.09 20.4367 16.206 20.4367 17.646C20.4367 19.074 20.7607 20.19 21.4087 20.994C22.0567 21.798 22.9627 22.2 24.1267 22.2ZM34.8581 24V13.236H30.5021V11.31H41.5181V13.236H37.1621V24H34.8581ZM46.2303 24V18.168L41.3523 11.31H44.0343L47.4183 16.116L50.8203 11.31H53.3943L48.5343 18.186V24H46.2303Z" fill="black"/>
<path d="M153.176 24.28V20.626H149.612V19.042H153.176V15.496H154.832V19.042H158.396V20.626H154.832V24.28H153.176Z" fill="black"/>
<path d="M169.566 27V25.092H172.428V16.938L170.214 18.27L169.314 16.578L173.094 14.31H174.732V25.092H177.414V27H169.566Z" fill="black"/>
<path d="M192.322 21.076V19.276H197.686V21.076H192.322Z" fill="black"/>
</svg>
