<svg width="270" height="50" viewBox="0 0 270 50" fill="none" xmlns="http://www.w3.org/2000/svg">
<path d="M245 0L250.613 17.2746H268.776L254.082 27.9508L259.695 45.2254L245 34.5491L230.305 45.2254L235.918 27.9508L221.224 17.2746H239.387L245 0Z" fill="#C4C4C4"/>
<path d="M184 0L189.613 17.2746H207.776L193.082 27.9508L198.695 45.2254L184 34.5491L169.305 45.2254L174.918 27.9508L160.224 17.2746H178.387L184 0Z" fill="#FFC700"/>
<path d="M131 0L136.613 17.2746H154.776L140.082 27.9508L145.695 45.2254L131 34.5491L116.305 45.2254L121.918 27.9508L107.224 17.2746H125.387L131 0Z" fill="#FFC700"/>
<path d="M78 0L83.6129 17.2746H101.776L87.0818 27.9508L92.6946 45.2254L78 34.5491L63.3054 45.2254L68.9182 27.9508L54.2236 17.2746H72.3871L78 0Z" fill="#FFC700"/>
<path d="M25 0L30.6129 17.2746H48.7764L34.0818 27.9508L39.6946 45.2254L25 34.5491L10.3054 45.2254L15.9182 27.9508L1.22359 17.2746H19.3871L25 0Z" fill="#FFC700"/>
</svg>
