<svg width="394" height="80" viewBox="0 0 394 80" fill="none" xmlns="http://www.w3.org/2000/svg">
<rect width="427" height="80" rx="40" fill="#F1D16C"/>
<path d="M84.3262 48V36.288H86.6782V38.184C87.0302 37.512 87.5182 36.992 88.1422 36.624C88.7662 36.256 89.4942 36.072 90.3262 36.072C92.1182 36.072 93.2782 36.856 93.8062 38.424C94.1742 37.688 94.7022 37.112 95.3902 36.696C96.0782 36.28 96.8622 36.072 97.7422 36.072C100.366 36.072 101.678 37.64 101.678 40.776V48H99.2542V40.896C99.2542 39.904 99.0782 39.176 98.7262 38.712C98.3902 38.248 97.8302 38.016 97.0462 38.016C96.1662 38.016 95.4702 38.328 94.9582 38.952C94.4462 39.56 94.1902 40.392 94.1902 41.448V48H91.7662V40.896C91.7662 39.904 91.5982 39.176 91.2622 38.712C90.9262 38.248 90.3662 38.016 89.5822 38.016C88.7022 38.016 88.0062 38.328 87.4942 38.952C86.9982 39.56 86.7502 40.392 86.7502 41.448V48H84.3262ZM108.811 48.216C107.995 48.216 107.267 48.056 106.627 47.736C105.987 47.416 105.475 46.984 105.091 46.44C104.723 45.896 104.539 45.28 104.539 44.592C104.539 43.728 104.755 43.048 105.187 42.552C105.635 42.056 106.363 41.696 107.371 41.472C108.395 41.248 109.771 41.136 111.499 41.136H112.315V40.512C112.315 39.6 112.123 38.944 111.739 38.544C111.355 38.144 110.723 37.944 109.843 37.944C109.171 37.944 108.499 38.048 107.827 38.256C107.155 38.448 106.467 38.76 105.763 39.192L105.019 37.488C105.627 37.056 106.387 36.712 107.299 36.456C108.211 36.2 109.083 36.072 109.915 36.072C111.515 36.072 112.699 36.456 113.467 37.224C114.235 37.976 114.619 39.16 114.619 40.776V48H112.339V46.056C112.051 46.728 111.603 47.256 110.995 47.64C110.387 48.024 109.659 48.216 108.811 48.216ZM109.291 46.488C110.155 46.488 110.875 46.184 111.451 45.576C112.027 44.968 112.315 44.2 112.315 43.272V42.624H111.523C110.355 42.624 109.435 42.68 108.763 42.792C108.107 42.904 107.635 43.096 107.347 43.368C107.075 43.624 106.939 43.984 106.939 44.448C106.939 45.056 107.147 45.552 107.563 45.936C107.979 46.304 108.555 46.488 109.291 46.488ZM122.134 48.216C119.302 48.216 117.886 46.64 117.886 43.488V36.288H120.31V43.512C120.31 44.456 120.502 45.152 120.886 45.6C121.27 46.048 121.878 46.272 122.71 46.272C123.622 46.272 124.358 45.968 124.918 45.36C125.494 44.752 125.782 43.936 125.782 42.912V36.288H128.206V48H125.854V46.128C125.47 46.816 124.958 47.336 124.318 47.688C123.678 48.04 122.95 48.216 122.134 48.216ZM142.919 48.216C141.447 48.216 140.351 47.84 139.631 47.088C138.911 46.336 138.551 45.248 138.551 43.824V38.16H136.271V36.288H138.551V32.76H140.975V36.288H144.599V38.16H140.975V43.632C140.975 44.48 141.151 45.12 141.503 45.552C141.871 45.984 142.463 46.2 143.279 46.2C143.535 46.2 143.783 46.176 144.023 46.128C144.263 46.064 144.503 45.992 144.743 45.912L145.127 47.736C144.887 47.88 144.551 47.992 144.119 48.072C143.703 48.168 143.303 48.216 142.919 48.216ZM151.663 48.216C150.479 48.216 149.455 47.968 148.591 47.472C147.727 46.976 147.055 46.28 146.575 45.384C146.111 44.472 145.879 43.392 145.879 42.144C145.879 40.896 146.111 39.824 146.575 38.928C147.055 38.016 147.727 37.312 148.591 36.816C149.455 36.32 150.479 36.072 151.663 36.072C152.815 36.072 153.823 36.32 154.687 36.816C155.551 37.312 156.223 38.016 156.703 38.928C157.183 39.824 157.423 40.896 157.423 42.144C157.423 43.392 157.183 44.472 156.703 45.384C156.223 46.28 155.551 46.976 154.687 47.472C153.823 47.968 152.815 48.216 151.663 48.216ZM151.663 46.344C152.655 46.344 153.455 45.984 154.063 45.264C154.671 44.544 154.975 43.504 154.975 42.144C154.975 40.784 154.671 39.752 154.063 39.048C153.455 38.328 152.655 37.968 151.663 37.968C150.655 37.968 149.847 38.328 149.239 39.048C148.631 39.752 148.327 40.784 148.327 42.144C148.327 43.504 148.631 44.544 149.239 45.264C149.847 45.984 150.655 46.344 151.663 46.344ZM160.145 52.32V36.288H162.521V38.28C162.857 37.608 163.369 37.072 164.057 36.672C164.745 36.272 165.537 36.072 166.433 36.072C167.473 36.072 168.377 36.32 169.145 36.816C169.929 37.312 170.529 38.016 170.945 38.928C171.377 39.824 171.593 40.896 171.593 42.144C171.593 43.392 171.377 44.472 170.945 45.384C170.529 46.296 169.929 47 169.145 47.496C168.377 47.976 167.473 48.216 166.433 48.216C165.569 48.216 164.793 48.032 164.105 47.664C163.433 47.28 162.921 46.76 162.569 46.104V52.32H160.145ZM165.833 46.344C166.841 46.344 167.641 45.984 168.233 45.264C168.841 44.544 169.145 43.504 169.145 42.144C169.145 40.784 168.841 39.752 168.233 39.048C167.641 38.328 166.841 37.968 165.833 37.968C164.825 37.968 164.017 38.328 163.409 39.048C162.817 39.752 162.521 40.784 162.521 42.144C162.521 43.504 162.817 44.544 163.409 45.264C164.017 45.984 164.825 46.344 165.833 46.344ZM174.109 33.576V31.056H176.941V33.576H174.109ZM174.325 48V36.288H176.749V48H174.325ZM180.161 48V36.288H182.513V38.232C182.913 37.528 183.457 36.992 184.145 36.624C184.849 36.256 185.633 36.072 186.497 36.072C189.265 36.072 190.649 37.64 190.649 40.776V48H188.225V40.92C188.225 39.912 188.025 39.176 187.625 38.712C187.241 38.248 186.633 38.016 185.801 38.016C184.825 38.016 184.041 38.328 183.449 38.952C182.873 39.56 182.585 40.368 182.585 41.376V48H180.161ZM199.293 52.536C198.237 52.536 197.253 52.408 196.341 52.152C195.429 51.912 194.621 51.528 193.917 51L194.661 49.272C195.365 49.752 196.085 50.104 196.821 50.328C197.557 50.552 198.325 50.664 199.125 50.664C201.365 50.664 202.485 49.544 202.485 47.304V45.456C202.149 46.16 201.621 46.712 200.901 47.112C200.197 47.512 199.405 47.712 198.525 47.712C197.469 47.712 196.549 47.472 195.765 46.992C194.981 46.496 194.373 45.816 193.941 44.952C193.509 44.072 193.293 43.048 193.293 41.88C193.293 40.728 193.509 39.72 193.941 38.856C194.373 37.976 194.981 37.296 195.765 36.816C196.549 36.32 197.469 36.072 198.525 36.072C199.421 36.072 200.221 36.272 200.925 36.672C201.629 37.072 202.149 37.624 202.485 38.328V36.288H204.837V47.016C204.837 48.856 204.365 50.232 203.421 51.144C202.477 52.072 201.101 52.536 199.293 52.536ZM199.101 45.816C200.125 45.816 200.941 45.464 201.549 44.76C202.157 44.056 202.461 43.096 202.461 41.88C202.461 40.664 202.157 39.712 201.549 39.024C200.941 38.32 200.125 37.968 199.101 37.968C198.077 37.968 197.261 38.32 196.653 39.024C196.045 39.712 195.741 40.664 195.741 41.88C195.741 43.096 196.045 44.056 196.653 44.76C197.261 45.464 198.077 45.816 199.101 45.816ZM219.536 48.216C218.064 48.216 216.968 47.84 216.248 47.088C215.528 46.336 215.168 45.248 215.168 43.824V38.16H212.888V36.288H215.168V32.76H217.592V36.288H221.216V38.16H217.592V43.632C217.592 44.48 217.768 45.12 218.12 45.552C218.488 45.984 219.08 46.2 219.896 46.2C220.152 46.2 220.4 46.176 220.64 46.128C220.88 46.064 221.12 45.992 221.36 45.912L221.744 47.736C221.504 47.88 221.168 47.992 220.736 48.072C220.32 48.168 219.92 48.216 219.536 48.216ZM227.053 48.216C226.237 48.216 225.509 48.056 224.869 47.736C224.229 47.416 223.717 46.984 223.333 46.44C222.965 45.896 222.781 45.28 222.781 44.592C222.781 43.728 222.997 43.048 223.429 42.552C223.877 42.056 224.605 41.696 225.613 41.472C226.637 41.248 228.013 41.136 229.741 41.136H230.557V40.512C230.557 39.6 230.365 38.944 229.981 38.544C229.597 38.144 228.965 37.944 228.085 37.944C227.413 37.944 226.741 38.048 226.069 38.256C225.397 38.448 224.709 38.76 224.005 39.192L223.261 37.488C223.869 37.056 224.629 36.712 225.541 36.456C226.453 36.2 227.325 36.072 228.157 36.072C229.757 36.072 230.941 36.456 231.709 37.224C232.477 37.976 232.861 39.16 232.861 40.776V48H230.581V46.056C230.293 46.728 229.845 47.256 229.237 47.64C228.629 48.024 227.901 48.216 227.053 48.216ZM227.533 46.488C228.397 46.488 229.117 46.184 229.693 45.576C230.269 44.968 230.557 44.2 230.557 43.272V42.624H229.765C228.597 42.624 227.677 42.68 227.005 42.792C226.349 42.904 225.877 43.096 225.589 43.368C225.317 43.624 225.181 43.984 225.181 44.448C225.181 45.056 225.389 45.552 225.805 45.936C226.221 46.304 226.797 46.488 227.533 46.488ZM236.248 48V36.288H238.6V38.184C238.952 37.512 239.44 36.992 240.064 36.624C240.688 36.256 241.416 36.072 242.248 36.072C244.04 36.072 245.2 36.856 245.728 38.424C246.096 37.688 246.624 37.112 247.312 36.696C248 36.28 248.784 36.072 249.664 36.072C252.288 36.072 253.6 37.64 253.6 40.776V48H251.176V40.896C251.176 39.904 251 39.176 250.648 38.712C250.312 38.248 249.752 38.016 248.968 38.016C248.088 38.016 247.392 38.328 246.88 38.952C246.368 39.56 246.112 40.392 246.112 41.448V48H243.688V40.896C243.688 39.904 243.52 39.176 243.184 38.712C242.848 38.248 242.288 38.016 241.504 38.016C240.624 38.016 239.928 38.328 239.416 38.952C238.92 39.56 238.672 40.392 238.672 41.448V48H236.248ZM263.277 48.216C262.381 48.216 261.589 48.016 260.901 47.616C260.213 47.216 259.701 46.68 259.365 46.008V48H256.989V31.08H259.413V38.184C259.765 37.544 260.277 37.032 260.949 36.648C261.637 36.264 262.413 36.072 263.277 36.072C264.317 36.072 265.221 36.32 265.989 36.816C266.773 37.312 267.373 38.016 267.789 38.928C268.221 39.824 268.437 40.896 268.437 42.144C268.437 43.392 268.221 44.472 267.789 45.384C267.373 46.296 266.773 47 265.989 47.496C265.221 47.976 264.317 48.216 263.277 48.216ZM262.677 46.344C263.685 46.344 264.485 45.984 265.077 45.264C265.685 44.544 265.989 43.504 265.989 42.144C265.989 40.784 265.685 39.752 265.077 39.048C264.485 38.328 263.685 37.968 262.677 37.968C261.669 37.968 260.861 38.328 260.253 39.048C259.661 39.752 259.365 40.784 259.365 42.144C259.365 43.504 259.661 44.544 260.253 45.264C260.861 45.984 261.669 46.344 262.677 46.344ZM274.913 48.216C274.097 48.216 273.369 48.056 272.729 47.736C272.089 47.416 271.577 46.984 271.193 46.44C270.825 45.896 270.641 45.28 270.641 44.592C270.641 43.728 270.857 43.048 271.289 42.552C271.737 42.056 272.465 41.696 273.473 41.472C274.497 41.248 275.873 41.136 277.601 41.136H278.417V40.512C278.417 39.6 278.225 38.944 277.841 38.544C277.457 38.144 276.825 37.944 275.945 37.944C275.273 37.944 274.601 38.048 273.929 38.256C273.257 38.448 272.569 38.76 271.865 39.192L271.121 37.488C271.729 37.056 272.489 36.712 273.401 36.456C274.313 36.2 275.185 36.072 276.017 36.072C277.617 36.072 278.801 36.456 279.569 37.224C280.337 37.976 280.721 39.16 280.721 40.776V48H278.441V46.056C278.153 46.728 277.705 47.256 277.097 47.64C276.489 48.024 275.761 48.216 274.913 48.216ZM275.393 46.488C276.257 46.488 276.977 46.184 277.553 45.576C278.129 44.968 278.417 44.2 278.417 43.272V42.624H277.625C276.457 42.624 275.537 42.68 274.865 42.792C274.209 42.904 273.737 43.096 273.449 43.368C273.177 43.624 273.041 43.984 273.041 44.448C273.041 45.056 273.249 45.552 273.665 45.936C274.081 46.304 274.657 46.488 275.393 46.488ZM284.059 48V31.08H286.483V38.112C286.883 37.44 287.419 36.936 288.091 36.6C288.779 36.248 289.547 36.072 290.395 36.072C293.163 36.072 294.547 37.64 294.547 40.776V48H292.123V40.92C292.123 39.912 291.923 39.176 291.523 38.712C291.139 38.248 290.531 38.016 289.699 38.016C288.723 38.016 287.939 38.328 287.347 38.952C286.771 39.56 286.483 40.368 286.483 41.376V48H284.059ZM301.632 48.216C300.816 48.216 300.088 48.056 299.448 47.736C298.808 47.416 298.296 46.984 297.912 46.44C297.544 45.896 297.36 45.28 297.36 44.592C297.36 43.728 297.576 43.048 298.008 42.552C298.456 42.056 299.184 41.696 300.192 41.472C301.216 41.248 302.592 41.136 304.32 41.136H305.136V40.512C305.136 39.6 304.944 38.944 304.56 38.544C304.176 38.144 303.544 37.944 302.664 37.944C301.992 37.944 301.32 38.048 300.648 38.256C299.976 38.448 299.288 38.76 298.584 39.192L297.84 37.488C298.448 37.056 299.208 36.712 300.12 36.456C301.032 36.2 301.904 36.072 302.736 36.072C304.336 36.072 305.52 36.456 306.288 37.224C307.056 37.976 307.44 39.16 307.44 40.776V48H305.16V46.056C304.872 46.728 304.424 47.256 303.816 47.64C303.208 48.024 302.48 48.216 301.632 48.216ZM302.112 46.488C302.976 46.488 303.696 46.184 304.272 45.576C304.848 44.968 305.136 44.2 305.136 43.272V42.624H304.344C303.176 42.624 302.256 42.68 301.584 42.792C300.928 42.904 300.456 43.096 300.168 43.368C299.896 43.624 299.76 43.984 299.76 44.448C299.76 45.056 299.968 45.552 300.384 45.936C300.8 46.304 301.376 46.488 302.112 46.488ZM310.778 48V36.288H313.13V38.232C313.53 37.528 314.074 36.992 314.762 36.624C315.466 36.256 316.25 36.072 317.114 36.072C319.882 36.072 321.266 37.64 321.266 40.776V48H318.842V40.92C318.842 39.912 318.642 39.176 318.242 38.712C317.858 38.248 317.25 38.016 316.418 38.016C315.442 38.016 314.658 38.328 314.066 38.952C313.49 39.56 313.202 40.368 313.202 41.376V48H310.778ZM326.989 43.32V42.48C326.989 41.712 327.133 40.992 327.421 40.32C327.725 39.632 328.237 38.872 328.957 38.04C329.517 37.4 329.909 36.856 330.133 36.408C330.357 35.944 330.469 35.456 330.469 34.944C330.469 34.336 330.253 33.856 329.821 33.504C329.389 33.152 328.781 32.976 327.997 32.976C326.349 32.976 324.861 33.592 323.533 34.824L322.669 32.928C323.309 32.304 324.117 31.808 325.093 31.44C326.085 31.056 327.101 30.864 328.141 30.864C329.581 30.864 330.741 31.224 331.621 31.944C332.501 32.648 332.941 33.576 332.941 34.728C332.941 35.48 332.773 36.184 332.437 36.84C332.117 37.48 331.549 38.2 330.733 39C329.981 39.752 329.453 40.416 329.149 40.992C328.845 41.552 328.661 42.112 328.597 42.672L328.501 43.32H326.989ZM326.317 48V45.144H329.173V48H326.317Z" fill="black"/>
</svg>
